# xmcd CD database file
#
# Track frame offsets:
#	150
#	19536
#	36760
#	49545
#	65063
#	92683
#	111735
#	127712
#	142781
#	157888
#	179393
#	199015
#
# Disc length: 2963 seconds
#
# Revision: 0
# Processed by: cddbd v1.5.1PL0 Copyright (c) Steve Scherf et al.
# Submitted via: CDex 1.51
#
DISCID=970b910c
DTITLE=Knut Reiersrud - Pretty ugly
DYEAR=2004
DGENRE=Blues
TTITLE0=Is my living in vain
TTITLE1=That's allright
TTITLE2=Too many coocks
TTITLE3=Rubber and glue
TTITLE4=Tiramgoor
TTITLE5=Strawberry letter 23
TTITLE6=Worried life blues
TTITLE7=Don't start me talking
TTITLE8=You give me the blues
TTITLE9=You cant judge a book by the cover
TTITLE10=Sailing for the moon
TTITLE11=Holy Joe's
EXTD=YEAR: 2004
EXTT0=
EXTT1=
EXTT2=
EXTT3=
EXTT4=
EXTT5=
EXTT6=
EXTT7=
EXTT8=
EXTT9=
EXTT10=
EXTT11=
PLAYORDER=
